<?xml version="1.0" standalone="no"?>
<!DOCTYPE svg PUBLIC "-//W3C//DTD SVG 20010904//EN"
 "http://www.w3.org/TR/2001/REC-SVG-20010904/DTD/svg10.dtd">
<svg version="1.0" xmlns="http://www.w3.org/2000/svg"
 width="646.000000pt" height="668.000000pt" viewBox="0 0 646.000000 668.000000"
 preserveAspectRatio="xMidYMid meet">
<metadata>
Created by potrace 1.16, written by Peter Selinger 2001-2019
</metadata>
<g transform="translate(0.000000,668.000000) scale(0.100000,-0.100000)"
fill="#000000" stroke="none">
<path d="M3010 6384 c-266 -24 -545 -97 -736 -191 -57 -28 -61 -29 -114 -17
-107 25 -337 54 -517 66 -297 19 -600 -10 -856 -82 -133 -37 -162 -52 -182
-90 -21 -41 -19 -77 11 -172 77 -242 241 -462 463 -619 l90 -63 -49 -90 c-82
-153 -167 -382 -200 -541 -20 -100 -18 -95 -53 -95 -59 0 -201 -40 -282 -80
-242 -117 -390 -350 -441 -691 -13 -88 -15 -154 -11 -289 10 -312 74 -601 208
-946 186 -475 476 -924 839 -1298 551 -567 1211 -891 1885 -924 650 -33 1232
164 1815 614 147 114 447 413 576 574 416 522 685 1100 786 1686 29 174 32
513 5 648 -77 378 -279 609 -600 686 -45 11 -97 20 -114 20 -27 0 -34 4 -38
28 -49 226 -118 424 -210 598 l-53 100 91 65 c212 150 381 371 457 599 34 104
36 158 8 200 -21 31 -36 39 -131 67 -242 73 -428 97 -737 97 -242 -1 -445 -20
-652 -62 l-87 -18 -55 28 c-146 74 -369 141 -576 173 -101 15 -445 27 -540 19z
m440 -244 c220 -28 396 -78 583 -167 l117 -56 138 27 c214 41 341 56 552 63
190 6 455 -9 473 -26 17 -16 -343 -142 -718 -252 -410 -120 -506 -150 -622
-195 -117 -45 -261 -114 -335 -160 -168 -105 -319 -263 -408 -425 l-28 -52
-17 29 c-159 260 -299 392 -553 519 -174 87 -296 129 -797 275 -386 113 -765
245 -748 261 18 17 282 32 468 26 212 -7 354 -23 558 -63 l137 -27 128 61
c173 83 366 137 597 165 69 9 397 6 475 -3z m-2345 -428 c83 -32 194 -73 247
-91 l98 -33 -71 -84 c-39 -46 -75 -84 -79 -84 -19 0 -141 91 -209 155 -66 62
-161 181 -161 200 0 4 6 5 13 2 6 -4 80 -33 162 -65z m4365 59 c0 -18 -101
-140 -170 -205 -64 -60 -181 -146 -200 -146 -3 0 -39 38 -78 84 l-71 84 134
46 c74 26 187 68 252 95 131 54 133 54 133 42z m-3487 -341 c363 -107 515
-168 672 -270 104 -68 237 -204 297 -306 48 -79 117 -236 118 -264 0 -8 -20
-26 -45 -39 -56 -30 -152 -117 -249 -226 -75 -84 -86 -88 -86 -30 0 52 -52
186 -100 258 -227 339 -698 380 -981 86 -65 -68 -130 -184 -154 -279 -22 -84
-22 -226 0 -310 44 -171 164 -320 325 -404 177 -93 414 -90 606 7 160 81 280
187 518 460 141 161 229 242 278 252 62 14 127 -38 320 -259 235 -268 354
-373 512 -453 140 -71 335 -95 478 -58 214 56 397 239 453 453 21 82 21 232 0
314 -24 93 -89 210 -154 277 -242 251 -628 263 -890 26 -93 -84 -191 -279
-191 -379 0 -18 -3 -35 -6 -39 -3 -3 -39 32 -80 78 -98 110 -193 197 -249 226
-42 22 -46 27 -41 53 10 51 82 202 132 278 64 97 181 213 279 277 158 104 308
164 687 276 l253 74 63 -62 c296 -290 501 -723 540 -1143 28 -302 -75 -593
-287 -805 -121 -121 -260 -204 -428 -256 -84 -26 -98 -27 -288 -27 -184 0
-208 2 -297 27 -102 27 -191 63 -268 107 -32 19 -46 34 -51 56 -7 37 -362 622
-395 652 -32 28 -108 30 -141 4 -29 -23 -395 -619 -402 -656 -5 -22 -19 -37
-51 -56 -77 -44 -166 -80 -268 -107 -89 -25 -113 -27 -297 -27 -190 0 -204 1
-288 27 -168 52 -307 135 -428 256 -212 213 -314 497 -286 801 30 341 168 688
385 975 73 96 214 236 231 230 9 -2 123 -36 254 -75z m249 -867 c85 -40 151
-105 191 -191 29 -61 32 -75 32 -167 0 -91 -3 -106 -31 -165 -39 -83 -106
-150 -192 -192 -61 -30 -74 -33 -162 -33 -131 1 -192 25 -281 114 -88 88 -113
150 -113 276 0 115 25 183 96 260 91 100 176 136 308 132 71 -2 97 -8 152 -34z
m2271 -1 c83 -41 166 -129 198 -209 18 -45 23 -78 23 -148 0 -126 -25 -188
-113 -276 -89 -89 -150 -113 -281 -114 -88 0 -101 3 -161 32 -85 42 -154 111
-193 193 -28 59 -31 74 -31 165 0 92 3 106 32 167 71 151 204 231 374 225 74
-3 96 -8 152 -35z m-3633 -544 c1 -1117 298 -2221 781 -2895 32 -46 57 -83 54
-83 -2 0 -44 33 -92 73 -593 494 -1061 1258 -1203 1967 -124 616 8 1039 359
1151 31 10 66 18 79 18 l22 1 0 -232z m4751 216 c188 -55 323 -208 379 -427
56 -224 46 -509 -30 -823 -169 -690 -617 -1400 -1183 -1871 -48 -40 -90 -73
-92 -73 -3 0 22 37 54 83 485 679 780 1772 781 2895 1 264 -7 245 91 216z
m-2307 -679 c58 -96 106 -180 106 -186 0 -25 -215 -618 -222 -611 -8 9 -218
596 -218 611 0 14 212 361 221 361 3 0 54 -79 113 -175z m-1927 -354 c131 -93
272 -158 439 -200 l41 -11 12 -152 c74 -914 284 -1711 568 -2147 l54 -83 -47
26 c-104 58 -215 147 -339 271 -197 197 -347 413 -495 710 -246 496 -400 1062
-485 1774 l-6 53 85 -89 c47 -49 125 -118 173 -152z m3877 187 c-116 -973
-369 -1706 -778 -2256 -140 -189 -377 -407 -540 -498 l-47 -26 54 83 c154 236
284 572 387 992 84 343 153 782 181 1150 l12 157 41 11 c246 63 426 164 591
334 55 57 101 103 103 104 1 0 0 -23 -4 -51z m-2300 -633 c81 -209 159 -399
172 -422 42 -73 79 -77 124 -13 15 21 246 601 323 813 6 16 13 14 74 -17 157
-78 358 -131 546 -142 l104 -7 -3 -41 c-2 -23 -8 -102 -14 -176 -22 -281 -74
-627 -135 -898 -180 -802 -473 -1270 -845 -1348 -143 -30 -292 0 -421 84 -321
211 -564 755 -704 1577 -36 209 -70 493 -80 655 -3 52 -8 107 -10 121 l-4 26
105 6 c188 12 392 65 544 142 36 18 68 30 71 27 4 -4 73 -178 153 -387z"/>
<path d="M1990 4461 c-201 -61 -258 -328 -100 -464 109 -93 268 -87 369 15
129 129 93 346 -71 427 -63 32 -138 40 -198 22z m181 -96 c117 -61 73 -245
-58 -245 -105 0 -165 85 -127 180 29 72 113 102 185 65z"/>
<path d="M4245 4454 c-182 -64 -234 -306 -95 -444 176 -177 479 -34 458 215
-15 175 -196 289 -363 229z m222 -107 c32 -30 37 -41 41 -90 4 -55 3 -58 -36
-97 -36 -36 -45 -40 -88 -40 -87 1 -134 48 -134 134 0 43 4 53 39 87 35 35 44
39 90 39 44 0 56 -5 88 -33z"/>
</g>
</svg>
