<svg xmlns="http://www.w3.org/2000/svg" xmlns:xlink="http://www.w3.org/1999/xlink" width="800" height="800" viewBox="0 0 800 800">
  <defs>
    <clipPath id="clip-iPhone_12_Pro_Max_1">
      <rect width="800" height="800"/>
    </clipPath>
  </defs>
  <g id="iPhone_12_Pro_Max_1" data-name="iPhone 12 Pro Max – 1" clip-path="url(#clip-iPhone_12_Pro_Max_1)">
    <g id="Rechteck_1" data-name="Rechteck 1" fill="none" stroke="#000" stroke-linejoin="round" stroke-width="20">
      <rect width="800" height="800" rx="78" stroke="none"/>
      <rect x="10" y="10" width="780" height="780" rx="68" fill="none"/>
    </g>
    <path id="instagram-brands_1_" data-name="instagram-brands (1)" d="M284.46,170.4A145.837,145.837,0,1,0,430.3,316.233,145.607,145.607,0,0,0,284.46,170.4Zm0,240.651a94.813,94.813,0,1,1,94.813-94.813A94.986,94.986,0,0,1,284.46,411.047ZM470.279,164.43a34.016,34.016,0,1,1-34.016-34.016A33.937,33.937,0,0,1,470.279,164.43Zm96.59,34.524c-2.158-45.566-12.566-85.929-45.947-119.183-33.255-33.254-73.617-43.662-119.183-45.947-46.962-2.665-187.723-2.665-234.685,0-45.439,2.158-85.8,12.566-119.183,45.82S4.209,153.261,1.924,198.827c-2.665,46.962-2.665,187.723,0,234.685C4.082,479.079,14.49,519.441,47.871,552.7s73.617,43.662,119.183,45.947c46.962,2.665,187.723,2.665,234.685,0,45.566-2.158,85.929-12.566,119.183-45.947,33.255-33.255,43.662-73.617,45.947-119.183,2.665-46.962,2.665-187.6,0-234.558ZM506.2,483.9a95.991,95.991,0,0,1-54.07,54.07C414.686,552.823,325.838,549.4,284.46,549.4s-130.353,3.3-167.669-11.423a95.991,95.991,0,0,1-54.07-54.07C47.871,446.459,51.3,357.611,51.3,316.233S48,185.881,62.721,148.565a95.991,95.991,0,0,1,54.07-54.07c37.443-14.85,126.291-11.423,167.669-11.423s130.353-3.3,167.669,11.423a95.991,95.991,0,0,1,54.07,54.07c14.85,37.443,11.423,126.291,11.423,167.669S521.05,446.586,506.2,483.9Z" transform="translate(115.603 83.767)"/>
  </g>
</svg>
